<svg width="48" height="48" viewBox="0 0 48 48" fill="none" xmlns="http://www.w3.org/2000/svg">
<path d="M29.4316 27.4737H39.9789V24.9474H29.4316V27.4737ZM29.4316 33.9789H39.9789V31.3895H29.4316V33.9789ZM29.5579 12.6316H44.3368C45.3474 12.6316 46.2105 12.9895 46.9263 13.7053C47.6421 14.4211 48 15.2842 48 16.2947V44.3368C48 45.3474 47.6421 46.2105 46.9263 46.9263C46.2105 47.6421 45.3474 48 44.3368 48H3.66316C2.65263 48 1.78947 47.6421 1.07368 46.9263C0.357895 46.2105 0 45.3474 0 44.3368V16.2947C0 15.2842 0.357895 14.4211 1.07368 13.7053C1.78947 12.9895 2.65263 12.6316 3.66316 12.6316H18.4421V2.84211C18.4421 2.08421 18.7368 1.42105 19.3263 0.852632C19.9158 0.284211 20.5895 0 21.3474 0H26.7158C27.4737 0 28.1368 0.284211 28.7053 0.852632C29.2737 1.42105 29.5579 2.08421 29.5579 2.84211V12.6316ZM21.3474 15.4737H26.7158V2.84211H21.3474V15.4737ZM16.1684 31.3895C17.0105 31.3895 17.7368 31.0842 18.3474 30.4737C18.9579 29.8632 19.2632 29.1368 19.2632 28.2947C19.2632 27.4105 18.9579 26.6632 18.3474 26.0526C17.7368 25.4421 17.0105 25.1368 16.1684 25.1368C15.2842 25.1368 14.5368 25.4421 13.9263 26.0526C13.3158 26.6632 13.0105 27.4105 13.0105 28.2947C13.0105 29.1368 13.3158 29.8632 13.9263 30.4737C14.5368 31.0842 15.2842 31.3895 16.1684 31.3895ZM8.8421 38.0842H23.1789V37.5158C23.1789 36.8421 23.0105 36.2421 22.6737 35.7158C22.3368 35.1895 21.8947 34.8211 21.3474 34.6105C20.1684 34.1895 19.1895 33.9053 18.4105 33.7579C17.6316 33.6105 16.8842 33.5368 16.1684 33.5368C15.3684 33.5368 14.5263 33.6211 13.6421 33.7895C12.7579 33.9579 11.7895 34.2316 10.7368 34.6105C10.1895 34.8211 9.73684 35.1895 9.37895 35.7158C9.02105 36.2421 8.8421 36.8421 8.8421 37.5158V38.0842ZM18.4421 15.4737H3.66316C3.41053 15.4737 3.21053 15.5474 3.06316 15.6947C2.91579 15.8421 2.84211 16.0421 2.84211 16.2947V44.3368C2.84211 44.5895 2.91579 44.7895 3.06316 44.9368C3.21053 45.0842 3.41053 45.1579 3.66316 45.1579H44.3368C44.5895 45.1579 44.7895 45.0842 44.9368 44.9368C45.0842 44.7895 45.1579 44.5895 45.1579 44.3368V16.2947C45.1579 16.0421 45.0842 15.8421 44.9368 15.6947C44.7895 15.5474 44.5895 15.4737 44.3368 15.4737H29.5579C29.5579 16.4842 29.2526 17.2211 28.6421 17.6842C28.0316 18.1474 27.2421 18.3789 26.2737 18.3789H21.7263C20.8 18.3789 20.0211 18.1474 19.3895 17.6842C18.7579 17.2211 18.4421 16.4842 18.4421 15.4737Z" fill="#3836AE"/>
</svg>
