<svg width="180" height="180" viewBox="0 0 180 180" fill="none" xmlns="http://www.w3.org/2000/svg">
<rect x="0.5" y="0.5" width="179" height="179" rx="89.5" stroke="#3669AE"/>
<rect x="10" y="10" width="160" height="160" rx="80" fill="#3669AE"/>
<path d="M70.5 64.232C70.5 62.2003 71.3071 60.2517 72.7438 58.8151C74.1804 57.3784 76.129 56.5713 78.1607 56.5713L101.839 56.5713C103.871 56.5713 105.82 57.3784 107.256 58.8151C108.693 60.2517 109.5 62.2002 109.5 64.232L109.5 87.2587C108.106 87.1678 106.706 87.2144 105.321 87.398L105.321 64.232C105.321 62.3099 103.761 60.7499 101.839 60.7499L78.1607 60.7499C76.2386 60.7499 74.6786 62.3099 74.6786 64.232L74.6786 115.768C74.6786 117.69 76.2386 119.25 78.1607 119.25L88.6629 119.25L87.4372 123.428L78.1607 123.428C76.129 123.428 74.1804 122.621 72.7438 121.185C71.3071 119.748 70.5 117.799 70.5 115.768L70.5 64.232ZM126.214 108.107C126.215 111.258 125.393 114.354 123.83 117.09C122.267 119.826 120.018 122.106 117.304 123.706C114.59 125.307 111.505 126.171 108.355 126.214C105.204 126.257 102.097 125.478 99.3405 123.952L91.7717 126.156C91.532 126.226 91.2779 126.23 91.036 126.168C90.7942 126.106 90.5734 125.98 90.3968 125.803C90.2203 125.627 90.0944 125.406 90.0324 125.164C89.9705 124.922 89.9747 124.668 90.0446 124.428L92.2592 116.871C90.9238 114.453 90.1594 111.761 90.0244 109.002C89.8895 106.243 90.3876 103.489 91.4807 100.952C92.5738 98.4154 94.2329 96.1622 96.3309 94.3652C98.4289 92.5682 100.91 91.275 103.585 90.5847C106.26 89.8944 109.057 89.8252 111.763 90.3825C114.468 90.9398 117.011 92.1087 119.195 93.7999C121.379 95.491 123.148 97.6595 124.365 100.139C125.582 102.619 126.213 105.345 126.214 108.107ZM101.143 103.928C100.773 103.928 100.419 104.075 100.158 104.336C99.8968 104.598 99.75 104.952 99.75 105.321C99.75 105.691 99.8968 106.045 100.158 106.306C100.419 106.567 100.773 106.714 101.143 106.714L115.071 106.714C115.441 106.714 115.795 106.567 116.056 106.306C116.318 106.045 116.464 105.691 116.464 105.321C116.464 104.952 116.318 104.598 116.056 104.336C115.795 104.075 115.441 103.928 115.071 103.928L101.143 103.928ZM99.75 110.893C99.75 111.262 99.8968 111.616 100.158 111.878C100.419 112.139 100.773 112.286 101.143 112.286L108.107 112.286C108.477 112.286 108.831 112.139 109.092 111.878C109.353 111.616 109.5 111.262 109.5 110.893C109.5 110.523 109.353 110.169 109.092 109.908C108.831 109.647 108.477 109.5 108.107 109.5L101.143 109.5C100.773 109.5 100.419 109.647 100.158 109.908C99.8968 110.169 99.75 110.523 99.75 110.893Z" fill="white"/>
</svg>
