<svg width="43" height="36" viewBox="0 0 43 36" fill="none" xmlns="http://www.w3.org/2000/svg">
<path d="M3.225 35.6084C2.365 35.6084 1.6125 35.2746 0.9675 34.607C0.3225 33.9393 0 33.1604 0 32.2701V3.33829C0 2.44808 0.3225 1.66915 0.9675 1.00149C1.6125 0.333829 2.365 0 3.225 0H39.775C40.635 0 41.3875 0.333829 42.0325 1.00149C42.6775 1.66915 43 2.44808 43 3.33829V32.2701C43 33.1604 42.6775 33.9393 42.0325 34.607C41.3875 35.2746 40.635 35.6084 39.775 35.6084H3.225ZM21.5 18.8057L3.225 6.39839V32.2701H39.775V6.39839L21.5 18.8057ZM21.5 15.4674L39.56 3.33829H3.49375L21.5 15.4674ZM3.225 6.39839V3.33829V32.2701V6.39839Z" fill="#404040"/>
</svg>
