<svg width="27" height="47" viewBox="0 0 27 47" fill="none" xmlns="http://www.w3.org/2000/svg">
<path d="M2.89286 46.7997C2.12143 46.7997 1.44643 46.4806 0.867857 45.8424C0.289285 45.2042 0 44.4597 0 43.6088V3.19089C0 2.33998 0.289285 1.59544 0.867857 0.957266C1.44643 0.319089 2.12143 0 2.89286 0H24.1071C24.8786 0 25.5536 0.319089 26.1321 0.957266C26.7107 1.59544 27 2.33998 27 3.19089V43.6088C27 44.4597 26.7107 45.2042 26.1321 45.8424C25.5536 46.4806 24.8786 46.7997 24.1071 46.7997H2.89286ZM2.89286 42.0133V43.6088H24.1071V42.0133H2.89286ZM2.89286 38.8224H24.1071V7.97721H2.89286V38.8224ZM2.89286 4.78633H24.1071V3.19089H2.89286V4.78633Z" fill="#404040"/>
</svg>
